<svg width="12" height="12" viewBox="0 0 12 12" fill="none" xmlns="http://www.w3.org/2000/svg">
<path fill-rule="evenodd" clip-rule="evenodd" d="M4.75 2H1.5V10.5H10V7.25C10 6.83579 10.3358 6.5 10.75 6.5C11.1642 6.5 11.5 6.83579 11.5 7.25V10.75C11.5 11.4404 10.9404 12 10.25 12H1.25C0.559644 12 0 11.4404 0 10.75V1.75C0 1.05964 0.559644 0.5 1.25 0.5H4.75C5.16421 0.5 5.5 0.835786 5.5 1.25C5.5 1.66421 5.16421 2 4.75 2ZM7.75 0.5H10.75C10.8517 0.5 10.9487 0.520239 11.0371 0.556909C11.1255 0.593509 11.2084 0.647763 11.2803 0.71967C11.4268 0.866117 11.5 1.05806 11.5 1.25V4.25C11.5 4.66421 11.1642 5 10.75 5C10.3358 5 10 4.66421 10 4.25V3.06066L5.28033 7.78033C4.98744 8.07322 4.51256 8.07322 4.21967 7.78033C3.92678 7.48744 3.92678 7.01256 4.21967 6.71967L8.93934 2H7.75C7.33579 2 7 1.66421 7 1.25C7 0.835786 7.33579 0.5 7.75 0.5Z" fill="white"/>
</svg>
