<svg width="12" height="12" viewBox="0 0 12 12" fill="none" xmlns="http://www.w3.org/2000/svg">
<path fill-rule="evenodd" clip-rule="evenodd" d="M4.75 1.75H1.5V10.25H10V7C10 6.58579 10.3358 6.25 10.75 6.25C11.1642 6.25 11.5 6.58579 11.5 7V10.5C11.5 11.1904 10.9404 11.75 10.25 11.75H1.25C0.559644 11.75 0 11.1904 0 10.5V1.5C0 0.809644 0.559644 0.25 1.25 0.25H4.75C5.16421 0.25 5.5 0.585786 5.5 1C5.5 1.41421 5.16421 1.75 4.75 1.75ZM7.75 0.25H10.75C10.8517 0.25 10.9487 0.270239 11.0371 0.306909C11.1255 0.343509 11.2084 0.397763 11.2803 0.46967C11.4268 0.616117 11.5 0.808058 11.5 1V4C11.5 4.41421 11.1642 4.75 10.75 4.75C10.3358 4.75 10 4.41421 10 4V2.81066L5.28033 7.53033C4.98744 7.82322 4.51256 7.82322 4.21967 7.53033C3.92678 7.23744 3.92678 6.76256 4.21967 6.46967L8.93934 1.75H7.75C7.33579 1.75 7 1.41421 7 1C7 0.585786 7.33579 0.25 7.75 0.25Z" fill="#647684"/>
</svg>
