<svg width="27" height="36" viewBox="0 0 27 36" fill="none" xmlns="http://www.w3.org/2000/svg">
<g id="Group 3">
<g id="Shape">
<mask id="path-1-inside-1_233_69" fill="white">
<path fill-rule="evenodd" clip-rule="evenodd" d="M13.5 0C22.5 8.25 27 15 27 22.5C27 29.9558 20.9558 36 13.5 36C6.04416 36 0 29.9558 0 22.5C0 15 4.5 8.25 13.5 0Z"/>
</mask>
<path fill-rule="evenodd" clip-rule="evenodd" d="M13.5 0C22.5 8.25 27 15 27 22.5C27 29.9558 20.9558 36 13.5 36C6.04416 36 0 29.9558 0 22.5C0 15 4.5 8.25 13.5 0Z" fill="#DEE6E5"/>
<path d="M13.5 0L15.5272 -2.21146H11.4728L13.5 0ZM30 22.5C30 13.6547 24.6375 6.13971 15.5272 -2.21146L11.4728 2.21146C20.3625 10.3603 24 16.3453 24 22.5H30ZM24 22.5C24 28.299 19.299 33 13.5 33V39C22.6127 39 30 31.6127 30 22.5H24ZM13.5 33C7.70101 33 3 28.299 3 22.5H-3C-3 31.6127 4.3873 39 13.5 39V33ZM11.4728 -2.21146C2.36246 6.13971 -3 13.6547 -3 22.5H3C3 16.3453 6.63754 10.3603 15.5272 2.21146L11.4728 -2.21146Z" fill="#313B3D" mask="url(#path-1-inside-1_233_69)"/>
</g>
<g id="Group 5">
<path id="Shape_2" fill-rule="evenodd" clip-rule="evenodd" d="M14.8896 12.521C15.5254 12.793 15.8928 13.4645 15.7791 14.1466L15.2702 17.2H17.4995C18.0677 17.2 18.5871 17.521 18.8412 18.0292C19.0952 18.5374 19.0404 19.1455 18.6995 19.6L13.8995 26C13.4846 26.5533 12.7452 26.7511 12.1094 26.4791C11.4736 26.207 11.1062 25.5356 11.2199 24.8534L11.7288 21.8H9.49952C8.93136 21.8 8.41197 21.479 8.15788 20.9708C7.90379 20.4627 7.95863 19.8545 8.29952 19.4L13.0995 13C13.5144 12.4468 14.2538 12.2489 14.8896 12.521Z" fill="white"/>
</g>
</g>
</svg>
