<svg width="40" height="40" viewBox="0 0 40 40" fill="none" xmlns="http://www.w3.org/2000/svg">
<path fill-rule="evenodd" clip-rule="evenodd" d="M18.2768 10.2762L20.4101 8.14276C22.1289 6.42404 25.1435 5.23128 28.1392 4.80336C29.6155 4.59247 31.0116 4.57935 32.1511 4.74998C33.3306 4.92663 34.0535 5.27192 34.3912 5.60955C34.7288 5.94717 35.0741 6.67002 35.2508 7.84954C35.4214 8.98897 35.4083 10.3851 35.1974 11.8614C34.7694 14.8571 33.5767 17.8717 31.8578 19.5906L20.0006 31.4478L16.9434 28.3906C16.4227 27.8699 15.5785 27.8699 15.0578 28.3906C14.5371 28.9113 14.5371 29.7555 15.0578 30.2762L19.0578 34.2762C19.5785 34.7969 20.4228 34.7969 20.9434 34.2762L22.4026 32.8171L25.524 38.0194C25.7352 38.3714 26.0969 38.6065 26.5044 38.6567C26.9119 38.7069 27.3198 38.5665 27.6101 38.2762L32.9434 32.9428C33.2402 32.6461 33.3799 32.2269 33.3206 31.8115L32.0815 23.1381L33.7435 21.4762C36.0247 19.1949 37.3652 15.5428 37.8373 12.2385C38.0764 10.5648 38.1049 8.90262 37.888 7.45458C37.6772 6.04664 37.2058 4.65287 36.2768 3.72389C35.3477 2.79492 33.954 2.32357 32.546 2.11273C31.098 1.89588 29.4358 1.92441 27.7621 2.16349C24.4578 2.6355 20.8057 3.97602 18.5245 6.25715L16.8626 7.91916L8.18922 6.68012C7.77376 6.62077 7.35461 6.76048 7.05785 7.05724L1.72452 12.3906C1.43419 12.6809 1.29382 13.0888 1.34398 13.4963C1.39415 13.9038 1.62927 14.2655 1.98134 14.4767L7.18369 17.5981L5.72456 19.0572C5.47451 19.3073 5.33403 19.6464 5.33403 20C5.33403 20.3537 5.4745 20.6928 5.72455 20.9429L9.72456 24.9429C10.2453 25.4636 11.0895 25.4636 11.6102 24.9429C12.1309 24.4222 12.1309 23.5779 11.6102 23.0572L8.55298 20L10.2768 18.2762L18.2768 10.2762ZM26.932 35.183L24.3462 30.8734L29.7245 25.4951L30.5864 31.5286L26.932 35.183ZM9.12735 15.6545L14.5056 10.2762L8.47206 9.41426L4.81767 13.0687L9.12735 15.6545ZM6.2768 27.6095C6.7975 27.0888 6.7975 26.2446 6.2768 25.7239C5.7561 25.2032 4.91189 25.2032 4.39119 25.7239L1.72452 28.3905C1.20382 28.9112 1.20382 29.7554 1.72452 30.2761C2.24522 30.7968 3.08944 30.7968 3.61014 30.2761L6.2768 27.6095ZM10.2769 31.6095C10.7976 31.0889 10.7976 30.2446 10.2769 29.7239C9.75619 29.2032 8.91197 29.2032 8.39127 29.7239L3.05786 35.0572C2.53716 35.5779 2.53715 36.4221 3.05784 36.9428C3.57853 37.4635 4.42275 37.4635 4.94346 36.9428L10.2769 31.6095ZM14.2768 35.6095C14.7975 35.0888 14.7975 34.2446 14.2768 33.7239C13.7561 33.2032 12.9119 33.2032 12.3912 33.7239L9.72452 36.3905C9.20382 36.9112 9.20382 37.7554 9.72452 38.2761C10.2452 38.7968 11.0894 38.7968 11.6101 38.2761L14.2768 35.6095ZM25.3341 17.9969C27.1733 17.9969 28.6643 16.5059 28.6643 14.6667C28.6643 12.8275 27.1733 11.3365 25.3341 11.3365C23.4949 11.3365 22.0039 12.8275 22.0039 14.6667C22.0039 16.5059 23.4949 17.9969 25.3341 17.9969Z" fill="#506164"/>
</svg>
