<svg width="40" height="40" viewBox="0 0 40 40" fill="none" xmlns="http://www.w3.org/2000/svg">
<g id="Timer">
<path id="Shape" fill-rule="evenodd" clip-rule="evenodd" d="M19.9977 2.09985C19.1692 2.09985 18.4977 2.77143 18.4977 3.59985V9.39282C18.4977 10.2212 19.1692 10.8928 19.9977 10.8928C20.8261 10.8928 21.4977 10.2212 21.4977 9.39282V5.17442C29.0223 5.92662 34.8977 12.2771 34.8977 19.9999C34.8977 28.2289 28.2267 34.8998 19.9977 34.8998C11.7686 34.8998 5.09766 28.2289 5.09766 19.9999C5.09766 16.3239 6.4269 12.9622 8.63276 10.3635C9.16886 9.73194 9.09146 8.78535 8.45988 8.24925C7.8283 7.71315 6.88172 7.79055 6.34562 8.42212C3.69686 11.5426 2.09766 15.5864 2.09766 19.9999C2.09766 29.8857 10.1118 37.8998 19.9977 37.8998C29.8836 37.8998 37.8977 29.8857 37.8977 19.9999C37.8977 10.114 29.8836 2.09985 19.9977 2.09985ZM17.975 21.5485L11.2633 12.1929C11.0732 11.9278 11.1029 11.5639 11.3336 11.3332C11.5643 11.1025 11.9281 11.0728 12.1932 11.263L21.5488 17.9746C22.833 18.8959 22.9845 20.749 21.8669 21.8666C20.7494 22.9841 18.8962 22.8327 17.975 21.5485Z" fill="#506164"/>
</g>
</svg>
