<svg width="30" height="30" viewBox="0 0 30 30" fill="none" xmlns="http://www.w3.org/2000/svg">
<path fill-rule="evenodd" clip-rule="evenodd" d="M27.8 1.0002C27.8 0.558368 27.4418 0.200195 27 0.200195C26.5582 0.200195 26.2 0.558368 26.2 1.0002V2.2002H25C24.5582 2.2002 24.2 2.55837 24.2 3.0002C24.2 3.44202 24.5582 3.8002 25 3.8002H26.2V5.0002C26.2 5.44202 26.5582 5.8002 27 5.8002C27.4418 5.8002 27.8 5.44202 27.8 5.0002V3.8002H29C29.4418 3.8002 29.8 3.44202 29.8 3.0002C29.8 2.55837 29.4418 2.2002 29 2.2002H27.8V1.0002ZM23.7071 6.29308C24.0976 6.6836 24.0976 7.31677 23.7071 7.7073L21.7071 9.7073C21.3166 10.0978 20.6834 10.0978 20.2929 9.70731C19.9024 9.31679 19.9024 8.68362 20.2929 8.29309L22.2929 6.29309C22.6834 5.90257 23.3165 5.90256 23.7071 6.29308ZM19.7071 10.2931C20.0977 10.6836 20.0977 11.3168 19.7071 11.7073L5.70711 25.7073C5.31658 26.0978 4.68342 26.0978 4.29289 25.7073C3.90237 25.3168 3.90237 24.6836 4.29289 24.2931L18.2929 10.2931C18.6834 9.90256 19.3166 9.90257 19.7071 10.2931ZM27 10.2002C27.4418 10.2002 27.8 10.5584 27.8 11.0002V12.2002H29C29.4418 12.2002 29.8 12.5584 29.8 13.0002C29.8 13.442 29.4418 13.8002 29 13.8002H27.8V15.0002C27.8 15.442 27.4418 15.8002 27 15.8002C26.5582 15.8002 26.2 15.442 26.2 15.0002V13.8002H25C24.5582 13.8002 24.2 13.442 24.2 13.0002C24.2 12.5584 24.5582 12.2002 25 12.2002H26.2V11.0002C26.2 10.5584 26.5582 10.2002 27 10.2002ZM17.8 1.0002C17.8 0.558368 17.4418 0.200195 17 0.200195C16.5582 0.200195 16.2 0.558368 16.2 1.0002V2.2002H15C14.5582 2.2002 14.2 2.55837 14.2 3.0002C14.2 3.44202 14.5582 3.8002 15 3.8002H16.2V5.0002C16.2 5.44202 16.5582 5.8002 17 5.8002C17.4418 5.8002 17.8 5.44202 17.8 5.0002V3.8002H19C19.4418 3.8002 19.8 3.44202 19.8 3.0002C19.8 2.55837 19.4418 2.2002 19 2.2002H17.8V1.0002Z" fill="#506164"/>
</svg>
